# xmcd
#
# Track frame offsets:
#  150
#  16565
#  32862
#  63643
#  98342
#  134720
#
# Disc length: 2261 seconds
#
# Revision: 1
# Processed by: cddbd v1.5.2PL0 Copyright (c) Steve Scherf et al.
# Submitted via: Collectorz.com_Music_Collector 6.11
#
DISCID=4608d306
DTITLE=Tom Novy and Lima - Take it
DYEAR=2005
DGENRE=Dance
TTITLE0=Take it
TTITLE1=Take it
TTITLE2=Take it
TTITLE3=Take it
TTITLE4=Take it
TTITLE5=Take it
EXTD=
EXTT0=
EXTT1=
EXTT2=
EXTT3=
EXTT4=
EXTT5=
PLAYORDER=
